#!OML:ASF F:\VICON\USERDATA\INSTALL\rory3\rory3.ASF
:FULLY-SPECIFIED
:DEGREES
17
root 0.809236 19.0041 -1.0003 1.87722 -4.77847 1.36849
lowerback 3.74617 0.725111 -2.06534
upperback 0.0341211 0.842106 -1.59265
thorax -2.07111 0.432874 -0.523044
lowerneck -8.90597 -4.14792 -9.03225
upperneck 10.9847 -5.58305 9.65912
head 5.28741 -2.50632 4.09517
rclavicle -1.58034e-014 7.95139e-015
rhumerus -32.4889 -0.570034 -83.9995
rradius 26.291
rwrist 21.0533
rhand -25.2992 -3.24344
rfingers 7.12502
rthumb 1.22257 -33.2197
lclavicle -1.58034e-014 7.95139e-015
lhumerus -33.7305 21.1014 73.5567
lradius 21.3125
lwrist -7.39519
lhand -28.7292 33.8738
lfingers 7.12502
lthumb -2.09022 63.8433
rfemur -1.84866 20.3171 18.1495
rtibia 14.0563
rfoot -13.0696 -20.0176
rtoes -2.62606
lfemur -0.321688 -7.05567 -21.5819
ltibia 10.2169
lfoot -10.069 14.843
ltoes -7.10443
18
root 0.812289 19.0028 -1.00529 1.89577 -4.74292 1.40156
lowerback 3.88324 0.735353 -2.08729
upperback -0.0069197 0.849333 -1.58499
thorax -2.19068 0.437572 -0.505723
lowerneck -9.06479 -4.10405 -9.11105
upperneck 11.2043 -5.52065 9.70545
head 5.37958 -2.47066 4.12725
rclavicle -8.79622e-015 5.56597e-015
rhumerus -32.5158 -0.693732 -83.9416
rradius 26.2434
rwrist 21.1511
rhand -25.8309 -3.07815
rfingers 7.12502
rthumb 0.709061 -33.0567
lclavicle -8.79622e-015 5.56597e-015
lhumerus -33.7279 20.9406 73.7209
lradius 21.4474
lwrist -7.24395
lhand -28.6045 33.8808
lfingers 7.12502
lthumb -1.96978 63.8514
rfemur -1.91286 20.2532 18.092
rtibia 14.1028
rfoot -13.0477 -20.0068
rtoes -2.83008
lfemur -0.404376 -6.97943 -21.5985
ltibia 10.2807
lfoot -10.0933 14.6949
ltoes -7.31933
19
root 0.81326 19.0018 -1.01233 1.93104 -4.70596 1.32391
lowerback 3.96935 0.727979 -2.03306
upperback -0.00327119 0.840061 -1.54926
thorax -2.23489 0.432784 -0.500057
lowerneck -9.18644 -4.03949 -9.17011
upperneck 11.2852 -5.43346 9.80526
head 5.42104 -2.42054 4.17542
rclavicle -1.38901e-014 8.74653e-015
rhumerus -32.4463 -0.670986 -83.9653
rradius 26.1782
rwrist 21.1211
rhand -26.172 -3.01773
rfingers 7.12502
rthumb 0.379625 -32.9971
lclavicle -1.38901e-014 8.74653e-015
lhumerus -33.6605 20.908 73.7872
lradius 21.5745
lwrist -7.341
lhand -28.1484 34.3227
lfingers 7.12502
lthumb -1.52924 64.297
rfemur -2.00155 20.2806 18.1613
rtibia 14.1675
rfoot -13.1286 -20.0434
rtoes -2.44304
lfemur -0.529993 -6.93609 -21.4783
ltibia 10.3578
lfoot -10.0161 14.5999
ltoes -8.15689
20
root 0.815754 19.0011 -1.01578 1.99791 -4.67802 1.24419
lowerback 3.97186 0.737496 -1.94416
upperback 0.0179632 0.857703 -1.53227
thorax -2.21349 0.440528 -0.533233
lowerneck -9.23419 -4.00678 -9.08849
upperneck 11.2445 -5.39188 9.78946
head 5.40984 -2.3967 4.15951
rclavicle -1.46604e-014 -1.90833e-014
rhumerus -32.4298 -0.668191 -83.9906
rradius 26.2552
rwrist 21.0684
rhand -26.4224 -3.13234
rfingers 7.12502
rthumb 0.137745 -33.112
lclavicle -1.46604e-014 -1.90833e-014
lhumerus -33.5679 20.7695 73.8977
lradius 21.6692
lwrist -7.2496
lhand -28.1003 34.6099
lfingers 7.12502
lthumb -1.48278 64.5845
rfemur -2.10477 20.2944 18.2124
rtibia 14.2008
rfoot -13.1589 -20.062
rtoes -2.23638
lfemur -0.695978 -6.83551 -21.3652
ltibia 10.4958
lfoot -10.0724 14.4367
ltoes -8.38969
21
root 0.817524 19.0021 -1.01824 2.05785 -4.64097 1.20498
lowerback 3.94105 0.767682 -1.88047
upperback 0.0586217 0.902459 -1.54716
thorax -2.1534 0.461676 -0.585899
lowerneck -9.15899 -4.02653 -8.95137
upperneck 11.0839 -5.42031 9.69289
head 5.34392 -2.41385 4.10341
rclavicle -1.2921e-014 -5.96354e-015
rhumerus -32.3804 -0.907078 -83.9464
rradius 26.3215
rwrist 21.199
rhand -26.4219 -3.15855
rfingers 7.12502
rthumb 0.138289 -33.1383
lclavicle -1.2921e-014 -5.96354e-015
lhumerus -33.4258 20.5196 74.0634
lradius 21.7647
lwrist -7.07457
lhand -28.3878 34.5331
lfingers 7.12502
lthumb -1.76044 64.5056
rfemur -2.18573 20.2129 18.2212
rtibia 14.2144
rfoot -13.1806 -20.019
rtoes -2.28797
lfemur -0.880342 -6.76071 -21.3003
ltibia 10.7011
lfoot -10.2184 14.2816
ltoes -8.23516
22
root 0.820035 19.0021 -1.02035 2.13259 -4.63726 1.20391
lowerback 3.88806 0.788629 -1.84639
upperback 0.0761881 0.933677 -1.56038
thorax -2.10498 0.476565 -0.619329
lowerneck -9.07618 -4.01465 -8.99061
upperneck 10.9716 -5.40546 9.7556
head 5.29648 -2.40722 4.13181
rclavicle -1.91827e-014 -1.31198e-014
rhumerus -32.2804 -1.06871 -83.9049
rradius 26.2599
rwrist 21.2905
rhand -26.2676 -3.29909
rfingers 7.12502
rthumb 0.287275 -33.2786
lclavicle -1.91827e-014 -1.31198e-014
lhumerus -33.3544 20.2048 74.2631
lradius 21.8573
lwrist -6.50836
lhand -29.0125 34.0578
lfingers 7.12502
lthumb -2.36375 64.0245
rfemur -2.2934 20.1708 18.1691
rtibia 14.2534
rfoot -13.2207 -19.9372
rtoes -2.06846
lfemur -1.07996 -6.75084 -21.2912
ltibia 10.8968
lfoot -10.2984 14.2412
ltoes -8.04193
23
root 0.824233 19.0014 -1.0211 2.28822 -4.617 1.14971
lowerback 3.80233 0.784576 -1.7879
upperback 0.0575867 0.93402 -1.51649
thorax -2.07578 0.476319 -0.605864
lowerneck -9.16735 -4.0072 -9.08916
upperneck 11.0043 -5.3839 9.81324
head 5.32425 -2.39449 4.16743
rclavicle -8.92046e-015 9.14409e-015
rhumerus -32.112 -1.07416 -83.8809
rradius 26.0785
rwrist 21.2223
rhand -26.3586 -3.54222
rfingers 7.12502
rthumb 0.19937 -33.5219
lclavicle -8.92046e-015 9.14409e-015
lhumerus -33.3463 19.9309 74.5256
lradius 21.9464
lwrist -5.59183
lhand -30.0777 33.0984
lfingers 7.12502
lthumb -3.39245 63.0512
rfemur -2.50934 20.0804 18.1424
rtibia 14.3161
rfoot -13.2548 -19.8926
rtoes -2.50965
lfemur -1.35766 -6.70791 -21.2287
ltibia 11.0927
lfoot -10.3316 14.1926
ltoes -8.12856
24
root 0.827615 19.0013 -1.02212 2.3809 -4.62045 1.17993
lowerback 3.80614 0.79771 -1.8198
upperback 0.0413374 0.94962 -1.51671
thorax -2.09519 0.484551 -0.589346
lowerneck -9.14985 -3.99256 -9.11734
upperneck 10.9296 -5.36407 9.8734
head 5.29868 -2.38314 4.19292
rclavicle -5.76476e-015 1.82882e-014
rhumerus -32.0674 -1.04498 -83.9121
rradius 26.0673
rwrist 21.1301
rhand -26.4167 -3.6366
rfingers 7.12502
rthumb 0.143243 -33.6163
lclavicle -5.76476e-015 1.82882e-014
lhumerus -33.2628 19.7148 74.6804
lradius 21.9813
lwrist -5.20604
lhand -30.4362 32.7693
lfingers 7.12502
lthumb -3.73868 62.7163
rfemur -2.69251 20.0665 18.0417
rtibia 14.4057
rfoot -13.3347 -19.8622
rtoes -2.6856
lfemur -1.5876 -6.67194 -21.2668
ltibia 11.3241
lfoot -10.3329 14.1725
ltoes -8.58226
25
root 0.828778 19.0011 -1.0254 2.39213 -4.65159 1.18695
lowerback 3.95037 0.822415 -1.83796
upperback 0.0208599 0.97671 -1.5243
thorax -2.19741 0.498714 -0.591107
lowerneck -9.08705 -3.98665 -9.03435
upperneck 10.8811 -5.36115 9.8114
head 5.26881 -2.38413 4.16007
rclavicle -5.71506e-016 -7.15625e-015
rhumerus -32.0995 -0.951605 -83.9828
rradius 26.1403
rwrist 21.0739
rhand -26.4904 -3.80047
rfingers 7.12502
rthumb 0.0721271 -33.7802
lclavicle -5.71506e-016 -7.15625e-015
lhumerus -33.1548 19.5381 74.7338
lradius 21.9536
lwrist -5.33808
lhand -30.2966 32.9503
lfingers 7.12502
lthumb -3.60386 62.8995
rfemur -2.79469 20.1479 18.0224
rtibia 14.5023
rfoot -13.2973 -19.9105
rtoes -2.79751
lfemur -1.77238 -6.51669 -21.2654
ltibia 11.6287
lfoot -10.5068 14.0554
ltoes -8.13515
26
root 0.829524 18.9997 -1.02977 2.40526 -4.7029 1.19088
lowerback 4.0629 0.849203 -1.85782
upperback 0.00475484 1.00763 -1.52565
thorax -2.27754 0.514734 -0.58529
lowerneck -9.07158 -3.96749 -8.96722
upperneck 10.9021 -5.33784 9.74106
head 5.26658 -2.37461 4.12867
rclavicle 4.5969e-015 1.35174e-014
rhumerus -32.1471 -0.908648 -84.0081
rradius 26.197
rwrist 21.1985
rhand -26.71 -3.68783
rfingers 7.12502
rthumb -0.140014 -33.6675
lclavicle 4.5969e-015 1.35174e-014
lhumerus -33.1408 19.557 74.6805
lradius 22.0317
lwrist -5.76809
lhand -29.6958 33.5548
lfingers 7.12502
lthumb -3.02369 63.5131
rfemur -2.91544 20.1489 17.9861
rtibia 14.639
rfoot -13.3699 -19.799
rtoes -2.56742
lfemur -1.93927 -6.41159 -21.2683
ltibia 11.9345
lfoot -10.7467 13.9705
ltoes -7.05092
27
root 0.829856 18.9968 -1.03309 2.43289 -4.77186 1.06952
lowerback 4.09582 0.875992 -1.79323
upperback 0.0313962 1.04747 -1.46361
thorax -2.26872 0.534086 -0.56037
lowerneck -9.12634 -3.94405 -8.93287
upperneck 10.9078 -5.29637 9.66222
head 5.2706 -2.35631 4.10051
rclavicle -1.19519e-014 1.51076e-014
rhumerus -32.1385 -0.791519 -84.0109
rradius 26.2391
rwrist 21.1552
rhand -26.9263 -3.17497
rfingers 7.12502
rthumb -0.348879 -33.1544
lclavicle -1.19519e-014 1.51076e-014
lhumerus -33.1217 19.5202 74.7104
lradius 22.2188
lwrist -6.08317
lhand -28.9448 34.111
lfingers 7.12502
lthumb -2.29837 64.0784
rfemur -3.03553 20.1231 18.0801
rtibia 14.7768
rfoot -13.4764 -19.6404
rtoes -2.35659
lfemur -2.16436 -6.26411 -21.1285
ltibia 12.3161
lfoot -10.9123 13.8919
ltoes -7.19079
28
root 0.830919 18.9913 -1.03761 2.43865 -4.8365 1.02896
lowerback 4.15033 0.903657 -1.77335
upperback 0.0882251 1.08537 -1.44396
thorax -2.241 0.55255 -0.553895
lowerneck -9.16271 -3.92464 -8.91736
upperneck 10.8255 -5.25877 9.62547
head 5.24643 -2.3391 4.08841
rclavicle 2.93207e-015 -2.66371e-014
rhumerus -32.0556 -0.718158 -84.027
rradius 26.285
rwrist 21.0102
rhand -26.9816 -2.62353
rfingers 7.12502
rthumb -0.402319 -32.6029
lclavicle 2.93207e-015 -2.66371e-014
lhumerus -32.9894 19.4492 74.7803
lradius 22.301
lwrist -6.15737
lhand -28.7065 33.9332
lfingers 7.12502
lthumb -2.06829 63.9029
rfemur -3.19547 20.07 18.1012
rtibia 14.9905
rfoot -13.4682 -19.5283
rtoes -2.61773
lfemur -2.39759 -6.16272 -21.0749
ltibia 12.6975
lfoot -11.0204 13.8129
ltoes -8.0583
29
root 0.830489 18.9861 -1.04458 2.45014 -4.86145 0.954989
lowerback 4.25264 0.938348 -1.70934
upperback 0.160366 1.13373 -1.42517
thorax -2.22349 0.575764 -0.574366
lowerneck -9.24483 -3.91941 -8.98536
upperneck 10.7213 -5.24289 9.73571
head 5.23157 -2.32569 4.13471
rclavicle -3.37934e-015 -1.39149e-014
rhumerus -31.9193 -0.754464 -84.0364
rradius 26.378
rwrist 20.8579
rhand -26.9579 -2.48664
rfingers 7.12502
rthumb -0.379399 -32.466
lclavicle -3.37934e-015 -1.39149e-014
lhumerus -32.7972 19.3135 74.9061
lradius 22.3715
lwrist -6.01299
lhand -28.79 33.4341
lfingers 7.12502
lthumb -2.14885 63.403
rfemur -3.38665 20.06 18.174
rtibia 15.2493
rfoot -13.4048 -19.5089
rtoes -2.72611
lfemur -2.63967 -6.11819 -20.9747
ltibia 13.0921
lfoot -11.15 13.7606
ltoes -8.49203
30
root 0.831416 18.9803 -1.05156 2.43319 -4.86739 0.995819
lowerback 4.41048 0.954501 -1.78427
upperback 0.221932 1.14834 -1.42217
thorax -2.25025 0.583685 -0.532437
lowerneck -9.40187 -3.92173 -8.96447
upperneck 10.6652 -5.23439 9.74594
head 5.24004 -2.31617 4.13293
rclavicle -1.963e-014 1.11319e-014
rhumerus -31.7915 -0.801564 -84.0222
rradius 26.4546
rwrist 20.8781
rhand -26.876 -2.30239
rfingers 7.12502
rthumb -0.300279 -32.2819
lclavicle -1.963e-014 1.11319e-014
lhumerus -32.6589 19.2386 74.9819
lradius 22.4494
lwrist -5.85741
lhand -28.7714 33.0334
lfingers 7.12502
lthumb -2.13097 63.0025
rfemur -3.57235 19.9832 18.1094
rtibia 15.5862
rfoot -13.5412 -19.3996
rtoes -2.65585
lfemur -2.86652 -6.02274 -21.0102
ltibia 13.4926
lfoot -11.3581 13.6537
ltoes -8.40877
